<svg width="1440" height="956" viewBox="0 0 1440 956" fill="none" xmlns="http://www.w3.org/2000/svg">
<path d="M20.6655 658.343L-1 725.378V959H1439V234.121L1328.15 67.034L1344.28 115.059L1350.83 260.135L1328.15 177.091L1317.07 162.584L1303.46 109.556L1296.41 94.0481L1221.84 2L1212.77 121.062L1221.84 142.073L992.086 242.125L985.536 198.603L962.863 169.087V149.077H939.182L932.128 198.603L939.182 234.121L932.128 260.135L882.247 149.077L860.078 279.145L871.162 297.154L882.247 426.222L860.078 406.211L842.947 452.235L725.046 488.254L690.281 472.246L673.15 510.766L612.184 526.274L615.711 488.254L594.045 480.25V530.776L566.838 510.766L552.226 542.282L477.656 510.766L468.587 488.254H454.983L411.652 551.287H404.094L386.964 594.81L339.602 580.302V542.282L320.456 530.776L315.921 542.282L309.875 560.292L276.117 545.284L287.202 488.254L309.875 383.699L320.456 370.192L339.602 279.145V263.637V198.603L309.875 260.135L305.34 279.145L298.79 272.641L305.34 60.0303L245.382 169.087V141.073L212.632 198.603L206.082 213.11V234.121L191.47 250.13L198.02 183.595L160.735 241.125L151.666 263.637L130.001 345.68V370.192L104.304 452.235L91.7082 461.24V480.25L64.5004 580.302L51.9041 594.81L20.6655 658.343Z" fill="#D9D9D9"/>
<path d="M20.6655 658.343L-1 725.378V959H1439V234.121L1328.15 67.034L1344.28 115.059L1350.83 260.135L1328.15 177.091L1317.07 162.584L1303.46 109.556L1296.41 94.0481L1221.84 2L1212.77 121.062L1221.84 142.073L992.086 242.125L985.536 198.603L962.863 169.087V149.077H939.182L932.128 198.603L939.182 234.121L932.128 260.135L882.247 149.077L860.078 279.145L871.162 297.154L882.247 426.222L860.078 406.211L842.947 452.235L725.046 488.254L690.281 472.246L673.15 510.766L612.184 526.274L615.711 488.254L594.045 480.25V530.776L566.838 510.766L552.226 542.282L477.656 510.766L468.587 488.254H454.983L411.652 551.287H404.094L386.964 594.81L339.602 580.302V542.282L320.456 530.776L315.921 542.282L309.875 560.292L276.117 545.284L287.202 488.254L309.875 383.699L320.456 370.192L339.602 279.145V263.637V198.603L309.875 260.135L305.34 279.145L298.79 272.641L305.34 60.0303L245.382 169.087V141.073L212.632 198.603L206.082 213.11V234.121L191.47 250.13L198.02 183.595L160.735 241.125L151.666 263.637L130.001 345.68V370.192L104.304 452.235L91.7082 461.24V480.25L64.5004 580.302L51.9041 594.81L20.6655 658.343Z" fill="black" fill-opacity="0.2"/>
<path d="M20.6655 658.343L-1 725.378V959H1439V234.121L1328.15 67.034L1344.28 115.059L1350.83 260.135L1328.15 177.091L1317.07 162.584L1303.46 109.556L1296.41 94.0481L1221.84 2L1212.77 121.062L1221.84 142.073L992.086 242.125L985.536 198.603L962.863 169.087V149.077H939.182L932.128 198.603L939.182 234.121L932.128 260.135L882.247 149.077L860.078 279.145L871.162 297.154L882.247 426.222L860.078 406.211L842.947 452.235L725.046 488.254L690.281 472.246L673.15 510.766L612.184 526.274L615.711 488.254L594.045 480.25V530.776L566.838 510.766L552.226 542.282L477.656 510.766L468.587 488.254H454.983L411.652 551.287H404.094L386.964 594.81L339.602 580.302V542.282L320.456 530.776L315.921 542.282L309.875 560.292L276.117 545.284L287.202 488.254L309.875 383.699L320.456 370.192L339.602 279.145V263.637V198.603L309.875 260.135L305.34 279.145L298.79 272.641L305.34 60.0303L245.382 169.087V141.073L212.632 198.603L206.082 213.11V234.121L191.47 250.13L198.02 183.595L160.735 241.125L151.666 263.637L130.001 345.68V370.192L104.304 452.235L91.7082 461.24V480.25L64.5004 580.302L51.9041 594.81L20.6655 658.343Z" stroke="black"/>
</svg>
