<svg width="1763" height="957" viewBox="0 0 1763 957" fill="none" xmlns="http://www.w3.org/2000/svg">
<path d="M21.6655 656.343L0 723.378V957H1440H1762.5V240.125L1598.5 258.135L1570 196.603L1537.5 147.077V218L1474.5 240.125L1440 232.121L1329.15 65.034L1345.28 113.059L1351.83 258.135L1329.15 175.091L1318.07 160.584L1304.46 107.556L1297.41 92.0481L1222.84 0L1213.77 119.062L1222.84 140.073L993.086 240.125L986.536 196.603L963.863 167.087V147.077H940.182L933.128 196.603L940.182 232.121L933.128 258.135L883.247 147.077L861.078 277.145L872.162 295.154L883.247 424.222L861.078 404.211L843.947 450.235L726.046 486.254L691.281 470.246L674.15 508.766L613.184 524.274L616.711 486.254L595.045 478.25V528.776L567.838 508.766L553.226 540.282L478.656 508.766L469.587 486.254H455.983L412.652 549.287H405.094L387.964 592.81L340.602 578.302V540.282L321.456 528.776L316.921 540.282L310.875 558.292L277.117 543.284L288.202 486.254L310.875 381.699L321.456 368.192L340.602 277.145V261.637V196.603L310.875 258.135L306.34 277.145L299.79 270.641L306.34 58.0303L246.382 167.087V139.073L213.632 196.603L207.082 211.11V232.121L192.47 248.13L199.02 181.595L161.735 239.125L152.666 261.637L131.001 343.68V368.192L105.304 450.235L92.7082 459.24V478.25L65.5004 578.302L52.9041 592.81L21.6655 656.343Z" fill="url(#paint0_linear_1_6)"/>
<defs>
<linearGradient id="paint0_linear_1_6" x1="720.001" y1="0" x2="720.001" y2="957" gradientUnits="userSpaceOnUse">
<stop stop-color="#D9D9D9"/>
<stop offset="0.795" stop-color="#5A707A"/>
</linearGradient>
</defs>
</svg>
