<?xml version="1.0" encoding="UTF-8"?>
<svg xmlns="http://www.w3.org/2000/svg" xmlns:xlink="http://www.w3.org/1999/xlink" width="48px" height="35px" viewBox="0 0 48 35" version="1.1">
<g id="surface1">
<path style=" stroke:none;fill-rule:nonzero;fill:rgb(20.392157%,28.235295%,77.254903%);fill-opacity:1;" d="M 62.644531 11.960938 C 64.71875 11.964844 66.675781 12.9375 67.9375 14.59375 C 67.980469 14.652344 68.050781 14.691406 68.125 14.699219 C 68.199219 14.707031 68.269531 14.6875 68.328125 14.636719 L 70.554688 12.847656 C 70.613281 12.800781 70.652344 12.734375 70.660156 12.660156 C 70.667969 12.585938 70.644531 12.511719 70.597656 12.453125 C 68.675781 9.941406 65.707031 8.46875 62.554688 8.472656 C 56.738281 8.472656 52.019531 13.523438 52.019531 19.738281 C 52.019531 25.949219 56.753906 31.003906 62.554688 31.003906 C 65.707031 31.015625 68.679688 29.542969 70.59375 27.023438 C 70.644531 26.96875 70.664062 26.890625 70.65625 26.816406 C 70.648438 26.742188 70.609375 26.675781 70.546875 26.632812 L 68.324219 24.863281 C 68.265625 24.816406 68.191406 24.792969 68.121094 24.800781 C 68.046875 24.808594 67.980469 24.847656 67.933594 24.90625 C 66.664062 26.550781 64.714844 27.519531 62.644531 27.527344 C 58.667969 27.527344 55.558594 24.105469 55.558594 19.746094 C 55.558594 15.382812 58.667969 11.960938 62.644531 11.960938 Z M 73.472656 7.828125 L 76.265625 7.828125 C 76.417969 7.828125 76.542969 7.953125 76.542969 8.109375 L 76.542969 30.4375 C 76.542969 30.589844 76.421875 30.714844 76.269531 30.714844 L 73.476562 30.714844 C 73.320312 30.714844 73.199219 30.589844 73.199219 30.433594 L 73.199219 8.109375 C 73.195312 8.035156 73.226562 7.964844 73.277344 7.910156 C 73.328125 7.859375 73.398438 7.828125 73.472656 7.828125 Z M 86.0625 15.554688 C 82.359375 15.554688 78.613281 18.195312 78.613281 23.25 C 78.613281 27.6875 81.820312 31.039062 86.0625 31.039062 C 90.308594 31.039062 93.546875 27.6875 93.546875 23.25 C 93.546875 18.808594 90.328125 15.554688 86.0625 15.554688 Z M 90.171875 23.25 C 90.171875 25.8125 88.40625 27.75 86.0625 27.75 C 83.722656 27.75 81.992188 25.8125 81.992188 23.25 C 81.992188 20.683594 83.742188 18.84375 86.0625 18.84375 C 88.386719 18.84375 90.171875 20.738281 90.171875 23.25 Z M 108.605469 15.875 L 105.8125 15.875 C 105.738281 15.875 105.667969 15.902344 105.613281 15.953125 C 105.5625 16.007812 105.535156 16.078125 105.535156 16.152344 L 105.535156 23.621094 C 105.535156 26.539062 103.535156 27.574219 101.824219 27.574219 C 100.308594 27.574219 98.78125 26.421875 98.78125 23.847656 L 98.78125 16.152344 C 98.78125 16.078125 98.753906 16.007812 98.699219 15.953125 C 98.648438 15.902344 98.578125 15.875 98.503906 15.875 L 95.710938 15.875 C 95.558594 15.875 95.4375 16 95.4375 16.152344 L 95.4375 24.214844 C 95.4375 28.636719 97.425781 31.070312 101.035156 31.070312 C 102.34375 31.070312 104.46875 30.3125 105.265625 28.636719 L 105.535156 28.691406 L 105.535156 30.4375 C 105.535156 30.59375 105.65625 30.71875 105.8125 30.71875 L 108.605469 30.71875 C 108.757812 30.71875 108.882812 30.59375 108.882812 30.4375 L 108.882812 16.152344 C 108.882812 16.078125 108.851562 16.007812 108.800781 15.953125 C 108.75 15.902344 108.679688 15.875 108.605469 15.875 Z M 125.765625 7.828125 L 122.964844 7.828125 C 122.894531 7.828125 122.824219 7.859375 122.769531 7.910156 C 122.71875 7.964844 122.691406 8.035156 122.691406 8.109375 L 122.691406 18.089844 L 122.519531 17.816406 C 121.671875 16.433594 119.839844 15.542969 117.859375 15.542969 C 114.4375 15.542969 110.980469 18.195312 110.980469 23.269531 C 110.980469 27.691406 113.953125 31.027344 117.886719 31.027344 C 119.382812 31.027344 121.496094 30.421875 122.519531 28.722656 L 122.691406 28.441406 L 122.691406 30.4375 C 122.691406 30.511719 122.71875 30.582031 122.769531 30.636719 C 122.824219 30.6875 122.894531 30.71875 122.964844 30.71875 L 125.765625 30.71875 C 125.835938 30.71875 125.90625 30.6875 125.957031 30.636719 C 126.011719 30.582031 126.039062 30.511719 126.035156 30.4375 L 126.035156 8.109375 C 126.039062 8.035156 126.011719 7.964844 125.957031 7.910156 C 125.90625 7.859375 125.835938 7.828125 125.765625 7.828125 Z M 122.640625 23.25 C 122.679688 24.402344 122.257812 25.527344 121.46875 26.367188 C 120.679688 27.203125 119.59375 27.691406 118.445312 27.71875 C 116.160156 27.71875 114.367188 25.75 114.367188 23.25 C 114.367188 20.75 116.160156 18.84375 118.445312 18.84375 C 120.804688 18.90625 122.675781 20.871094 122.628906 23.25 Z M 129.953125 15.875 L 132.746094 15.875 C 132.894531 15.875 133.019531 16 133.019531 16.152344 L 133.019531 30.4375 C 133.019531 30.589844 132.894531 30.714844 132.746094 30.714844 L 129.953125 30.714844 C 129.796875 30.714844 129.675781 30.589844 129.675781 30.433594 L 129.675781 16.152344 C 129.675781 16 129.800781 15.875 129.953125 15.875 Z M 131.359375 8.28125 C 130.777344 8.269531 130.210938 8.496094 129.792969 8.90625 C 129.375 9.320312 129.140625 9.882812 129.140625 10.472656 C 129.152344 11.695312 130.144531 12.679688 131.359375 12.667969 C 131.941406 12.675781 132.5 12.445312 132.910156 12.03125 C 133.324219 11.621094 133.554688 11.058594 133.550781 10.472656 C 133.558594 9.886719 133.332031 9.320312 132.917969 8.90625 C 132.503906 8.492188 131.941406 8.269531 131.359375 8.28125 Z M 144.527344 15.554688 C 143.300781 15.554688 141.125 16.21875 140.292969 17.988281 L 140.023438 17.933594 L 140.023438 16.152344 C 140.023438 16.078125 139.992188 16.007812 139.941406 15.953125 C 139.890625 15.902344 139.820312 15.875 139.746094 15.875 L 136.953125 15.875 C 136.800781 15.875 136.679688 16 136.679688 16.152344 L 136.679688 30.4375 C 136.679688 30.511719 136.707031 30.582031 136.757812 30.636719 C 136.808594 30.6875 136.878906 30.71875 136.953125 30.71875 L 139.746094 30.71875 C 139.898438 30.71875 140.023438 30.59375 140.023438 30.4375 L 140.023438 22.964844 C 140.023438 20.070312 142.019531 19.035156 143.734375 19.035156 C 145.25 19.035156 146.773438 20.179688 146.773438 22.730469 L 146.773438 30.4375 C 146.773438 30.59375 146.898438 30.71875 147.050781 30.71875 L 149.855469 30.71875 C 150.007812 30.71875 150.128906 30.59375 150.128906 30.4375 L 150.128906 22.378906 C 150.121094 17.980469 148.132812 15.554688 144.527344 15.554688 Z M 166.820312 15.875 L 164.027344 15.875 C 163.953125 15.875 163.882812 15.902344 163.832031 15.953125 C 163.78125 16.007812 163.75 16.078125 163.75 16.152344 L 163.75 18.117188 L 163.582031 17.84375 C 162.726562 16.460938 160.898438 15.570312 158.898438 15.570312 C 155.484375 15.570312 152.023438 18.222656 152.023438 23.296875 C 152.023438 27.722656 154.992188 31.054688 158.929688 31.054688 C 160.425781 31.054688 162.535156 30.449219 163.566406 28.75 L 163.734375 28.46875 L 163.734375 30.4375 C 163.734375 30.59375 163.859375 30.71875 164.011719 30.71875 L 166.804688 30.71875 C 166.878906 30.71875 166.949219 30.6875 167 30.636719 C 167.050781 30.582031 167.078125 30.511719 167.078125 30.4375 L 167.078125 16.152344 C 167.078125 16.003906 166.964844 15.882812 166.820312 15.875 Z M 163.699219 23.25 C 163.738281 24.40625 163.3125 25.53125 162.523438 26.371094 C 161.730469 27.210938 160.640625 27.695312 159.492188 27.71875 C 157.207031 27.71875 155.417969 25.75 155.417969 23.25 C 155.417969 20.75 157.207031 18.84375 159.492188 18.84375 C 161.859375 18.898438 163.734375 20.867188 163.691406 23.25 Z M 179.570312 15.925781 C 178.933594 15.667969 178.253906 15.535156 177.566406 15.535156 C 175.707031 15.535156 174.355469 16.65625 173.664062 18.777344 L 173.414062 18.742188 L 173.414062 16.152344 C 173.414062 16.078125 173.382812 16.007812 173.332031 15.953125 C 173.277344 15.902344 173.207031 15.875 173.136719 15.875 L 170.339844 15.875 C 170.269531 15.875 170.199219 15.902344 170.144531 15.953125 C 170.09375 16.007812 170.0625 16.078125 170.0625 16.152344 L 170.0625 30.4375 C 170.0625 30.59375 170.1875 30.71875 170.339844 30.71875 L 173.167969 30.71875 C 173.238281 30.71875 173.308594 30.6875 173.363281 30.636719 C 173.414062 30.582031 173.441406 30.511719 173.441406 30.4375 L 173.441406 25.5625 C 173.441406 19.742188 175.746094 18.875 177.125 18.875 C 177.707031 18.878906 178.28125 19 178.8125 19.230469 C 178.890625 19.265625 178.976562 19.265625 179.050781 19.230469 C 179.125 19.191406 179.175781 19.121094 179.191406 19.042969 L 179.746094 16.246094 C 179.773438 16.109375 179.699219 15.976562 179.570312 15.925781 Z M 195.074219 15.996094 C 195.023438 15.921875 194.9375 15.875 194.84375 15.875 L 191.835938 15.875 C 191.722656 15.878906 191.621094 15.945312 191.578125 16.054688 L 187.9375 25.5625 L 184.261719 16.054688 C 184.21875 15.945312 184.117188 15.878906 184.003906 15.875 L 180.9375 15.875 C 180.84375 15.875 180.761719 15.921875 180.710938 15.996094 C 180.660156 16.074219 180.648438 16.171875 180.683594 16.257812 L 186.144531 29.777344 L 183.128906 37.679688 C 183.089844 37.765625 183.097656 37.867188 183.152344 37.945312 C 183.203125 38.027344 183.292969 38.074219 183.386719 38.070312 L 186.3125 38.070312 C 186.425781 38.070312 186.527344 38 186.566406 37.894531 L 195.097656 16.265625 C 195.136719 16.179688 195.128906 16.078125 195.074219 15.996094 Z M 38.207031 11.054688 C 36.136719 4.511719 30.125 0.0507812 23.308594 0 C 17.585938 -0.03125 12.308594 3.125 9.601562 8.207031 C 4.585938 9.113281 0.734375 13.195312 0.0898438 18.289062 C -0.554688 23.378906 2.15625 28.304688 6.785156 30.449219 L 7.078125 30.582031 L 7.097656 30.582031 L 7.097656 27.242188 C 3.925781 25.277344 2.34375 21.5 3.164062 17.839844 C 3.984375 14.179688 7.023438 11.453125 10.722656 11.054688 L 11.542969 10.96875 L 11.902344 10.226562 C 13.984375 5.78125 18.433594 2.953125 23.308594 2.976562 C 29.164062 3.019531 34.242188 7.074219 35.621094 12.808594 L 35.902344 13.933594 L 37.074219 13.933594 C 41 14.015625 44.140625 17.238281 44.15625 21.191406 C 44.15625 23.964844 42.566406 26.234375 39.863281 27.382812 L 39.863281 30.550781 L 40.058594 30.488281 C 44.40625 29.054688 47.105469 25.492188 47.105469 21.191406 C 47.070312 16.046875 43.269531 11.71875 38.207031 11.054688 Z M 38.207031 11.054688 "/>
<path style=" stroke:none;fill-rule:nonzero;fill:rgb(20.392157%,28.235295%,77.254903%);fill-opacity:1;" d="M 17.589844 30.199219 L 18.234375 30.851562 C 18.273438 30.886719 18.28125 30.941406 18.261719 30.992188 C 18.242188 31.039062 18.199219 31.070312 18.144531 31.070312 L 13.035156 31.070312 C 11.742188 31.070312 10.691406 30.015625 10.691406 28.710938 L 10.691406 18.707031 C 10.691406 18.636719 10.636719 18.578125 10.5625 18.578125 L 9.472656 18.578125 C 9.417969 18.578125 9.371094 18.546875 9.351562 18.5 C 9.332031 18.449219 9.339844 18.394531 9.378906 18.355469 L 13.71875 13.984375 C 13.742188 13.960938 13.773438 13.945312 13.808594 13.945312 C 13.84375 13.945312 13.875 13.960938 13.902344 13.984375 L 18.234375 18.355469 C 18.273438 18.394531 18.28125 18.449219 18.261719 18.496094 C 18.242188 18.542969 18.199219 18.578125 18.144531 18.578125 L 17.039062 18.578125 C 16.964844 18.578125 16.90625 18.636719 16.90625 18.707031 L 16.90625 28.539062 C 16.90625 29.160156 17.152344 29.757812 17.589844 30.199219 Z M 27.175781 30.199219 L 27.828125 30.851562 C 27.863281 30.890625 27.875 30.945312 27.855469 30.992188 C 27.832031 31.039062 27.785156 31.070312 27.734375 31.070312 L 22.632812 31.070312 C 21.339844 31.070312 20.292969 30.015625 20.292969 28.710938 L 20.292969 21.234375 C 20.292969 21.164062 20.234375 21.105469 20.164062 21.101562 L 19.058594 21.101562 C 19.007812 21.101562 18.960938 21.070312 18.941406 21.023438 C 18.921875 20.972656 18.933594 20.917969 18.96875 20.882812 L 23.304688 16.515625 C 23.328125 16.492188 23.363281 16.476562 23.398438 16.476562 C 23.429688 16.476562 23.464844 16.492188 23.488281 16.515625 L 27.828125 20.875 C 27.863281 20.910156 27.875 20.96875 27.855469 21.015625 C 27.832031 21.0625 27.785156 21.09375 27.734375 21.09375 L 26.625 21.09375 C 26.554688 21.097656 26.496094 21.15625 26.496094 21.226562 L 26.496094 28.539062 C 26.5 29.160156 26.742188 29.757812 27.175781 30.199219 Z M 36.769531 30.199219 L 37.417969 30.851562 C 37.453125 30.886719 37.460938 30.941406 37.445312 30.992188 C 37.425781 31.039062 37.378906 31.070312 37.328125 31.070312 L 32.210938 31.070312 C 30.917969 31.070312 29.871094 30.015625 29.871094 28.710938 L 29.871094 23.746094 C 29.871094 23.671875 29.8125 23.613281 29.742188 23.613281 L 28.648438 23.613281 C 28.59375 23.617188 28.546875 23.582031 28.527344 23.535156 C 28.507812 23.484375 28.519531 23.425781 28.558594 23.390625 L 32.898438 19.023438 C 32.921875 18.996094 32.953125 18.984375 32.988281 18.984375 C 33.019531 18.984375 33.054688 18.996094 33.078125 19.023438 L 37.417969 23.390625 C 37.457031 23.425781 37.46875 23.484375 37.449219 23.535156 C 37.429688 23.582031 37.378906 23.617188 37.328125 23.613281 L 36.214844 23.613281 C 36.144531 23.613281 36.085938 23.671875 36.085938 23.746094 L 36.085938 28.539062 C 36.085938 29.160156 36.332031 29.757812 36.769531 30.199219 Z M 36.769531 30.199219 "/>
</g>
</svg>
