<?xml version="1.0" encoding="UTF-8"?>
<svg xmlns="http://www.w3.org/2000/svg" xmlns:xlink="http://www.w3.org/1999/xlink" width="48px" height="px" viewBox="0 0 48 48" version="1.1">
<g id="surface1">
<path style=" stroke:none;fill-rule:nonzero;fill:rgb(12.941177%,12.941177%,12.941177%);fill-opacity:1;" d="M 24 4 C 13 4 4 13 4 24 C 4 35 13 44 24 44 C 35 44 44 35 44 24 C 44 13 35 4 24 4 Z M 24 4 "/>
<path style=" stroke:none;fill-rule:nonzero;fill:rgb(100%,100%,100%);fill-opacity:1;" d="M 10.25 25.625 C 10.238281 25.347656 10.75 19.25 20.125 17.375 C 20.125 17.375 30.824219 16.542969 31.910156 25.273438 L 33.375 42 C 33.375 42 21.5 44.5 20.75 43.25 C 20 42 21.5 28.625 21.5 28.625 C 21.5 28.625 10.5 31.25 10.25 25.625 Z M 10.25 25.625 "/>
<path style=" stroke:none;fill-rule:nonzero;fill:rgb(100%,100%,100%);fill-opacity:1;" d="M 21.375 4.015625 L 21.875 3.984375 L 22.347656 11.609375 L 21.847656 11.640625 Z M 21.375 4.015625 "/>
<path style=" stroke:none;fill-rule:nonzero;fill:rgb(100%,100%,100%);fill-opacity:1;" d="M 23.378906 4.015625 L 23.878906 3.984375 L 26.371094 44.359375 L 25.871094 44.390625 Z M 23.378906 4.015625 "/>
<path style=" stroke:none;fill-rule:nonzero;fill:rgb(100%,100%,100%);fill-opacity:1;" d="M 17.894531 12.390625 L 18.394531 12.359375 L 18.539062 14.734375 L 18.042969 14.765625 Z M 17.894531 12.390625 "/>
<path style=" stroke:none;fill-rule:nonzero;fill:rgb(100%,100%,100%);fill-opacity:1;" d="M 19.710938 9.390625 L 20.207031 9.359375 L 20.515625 14.359375 L 20.019531 14.390625 Z M 19.710938 9.390625 "/>
<path style=" stroke:none;fill-rule:nonzero;fill:rgb(100%,100%,100%);fill-opacity:1;" d="M 15.234375 34.015625 L 15.734375 33.984375 L 15.988281 38.109375 L 15.488281 38.140625 Z M 15.234375 34.015625 "/>
<path style=" stroke:none;fill-rule:nonzero;fill:rgb(100%,100%,100%);fill-opacity:1;" d="M 15.480469 5.640625 L 15.976562 5.609375 L 17.699219 33.484375 L 17.199219 33.515625 Z M 15.480469 5.640625 "/>
<path style=" stroke:none;fill-rule:nonzero;fill:rgb(100%,100%,100%);fill-opacity:1;" d="M 11.316406 35.390625 L 11.816406 35.359375 L 12.078125 39.609375 L 11.582031 39.640625 Z M 11.316406 35.390625 "/>
<path style=" stroke:none;fill-rule:nonzero;fill:rgb(100%,100%,100%);fill-opacity:1;" d="M 10.761719 26.390625 L 11.261719 26.359375 L 11.628906 32.359375 L 11.132812 32.390625 Z M 10.761719 26.390625 "/>
<path style=" stroke:none;fill-rule:nonzero;fill:rgb(100%,100%,100%);fill-opacity:1;" d="M 9.714844 9.515625 L 10.214844 9.484375 L 10.632812 16.234375 L 10.132812 16.265625 Z M 9.714844 9.515625 "/>
<path style=" stroke:none;fill-rule:nonzero;fill:rgb(100%,100%,100%);fill-opacity:1;" d="M 12.058594 15.015625 L 12.558594 14.984375 L 13.066406 23.234375 L 12.566406 23.265625 Z M 12.058594 15.015625 "/>
<path style=" stroke:none;fill-rule:nonzero;fill:rgb(100%,100%,100%);fill-opacity:1;" d="M 6.753906 26.265625 L 7.253906 26.234375 L 7.839844 35.734375 L 7.34375 35.765625 Z M 6.753906 26.265625 "/>
<path style=" stroke:none;fill-rule:nonzero;fill:rgb(100%,100%,100%);fill-opacity:1;" d="M 6.019531 14.390625 L 6.519531 14.359375 L 7.042969 22.859375 L 6.542969 22.890625 Z M 6.019531 14.390625 "/>
<path style=" stroke:none;fill-rule:nonzero;fill:rgb(100%,100%,100%);fill-opacity:1;" d="M 9.078125 31.515625 L 9.578125 31.484375 L 9.953125 37.609375 L 9.457031 37.640625 Z M 9.078125 31.515625 "/>
<path style=" stroke:none;fill-rule:nonzero;fill:rgb(100%,100%,100%);fill-opacity:1;" d="M 7.832031 11.390625 L 8.332031 11.359375 L 9.390625 28.484375 L 8.890625 28.515625 Z M 7.832031 11.390625 "/>
<path style=" stroke:none;fill-rule:nonzero;fill:rgb(100%,100%,100%);fill-opacity:1;" d="M 25.746094 10.015625 L 26.246094 9.984375 L 26.570312 15.234375 L 26.070312 15.265625 Z M 25.746094 10.015625 "/>
<path style=" stroke:none;fill-rule:nonzero;fill:rgb(100%,100%,100%);fill-opacity:1;" d="M 27.378906 4.015625 L 27.875 3.984375 L 28.433594 12.984375 L 27.933594 13.015625 Z M 27.378906 4.015625 "/>
<path style=" stroke:none;fill-rule:nonzero;fill:rgb(100%,100%,100%);fill-opacity:1;" d="M 29.765625 10.265625 L 30.265625 10.234375 L 32.226562 41.984375 L 31.726562 42.015625 Z M 29.765625 10.265625 "/>
<path style=" stroke:none;fill-rule:nonzero;fill:rgb(100%,100%,100%);fill-opacity:1;" d="M 31.453125 5.265625 L 31.953125 5.234375 L 32.460938 13.484375 L 31.964844 13.515625 Z M 31.453125 5.265625 "/>
<path style=" stroke:none;fill-rule:nonzero;fill:rgb(100%,100%,100%);fill-opacity:1;" d="M 33.554688 6.890625 L 34.054688 6.859375 L 34.886719 20.359375 L 34.386719 20.390625 Z M 33.554688 6.890625 "/>
<path style=" stroke:none;fill-rule:nonzero;fill:rgb(100%,100%,100%);fill-opacity:1;" d="M 35.609375 7.765625 L 36.109375 7.734375 L 37.242188 26.109375 L 36.746094 26.140625 Z M 35.609375 7.765625 "/>
<path style=" stroke:none;fill-rule:nonzero;fill:rgb(100%,100%,100%);fill-opacity:1;" d="M 38.902344 28.640625 L 39.402344 28.609375 L 39.894531 36.609375 L 39.394531 36.640625 Z M 38.902344 28.640625 "/>
<path style=" stroke:none;fill-rule:nonzero;fill:rgb(100%,100%,100%);fill-opacity:1;" d="M 38.113281 15.890625 L 38.613281 15.859375 L 39.066406 23.234375 L 38.566406 23.265625 Z M 38.113281 15.890625 "/>
<path style=" stroke:none;fill-rule:nonzero;fill:rgb(100%,100%,100%);fill-opacity:1;" d="M 39.914062 12.640625 L 40.410156 12.609375 L 41.746094 34.234375 L 41.246094 34.265625 Z M 39.914062 12.640625 "/>
<path style=" stroke:none;fill-rule:nonzero;fill:rgb(12.941177%,12.941177%,12.941177%);fill-opacity:1;" d="M 18.664062 21.859375 C 18.664062 21.449219 18.332031 21.117188 17.921875 21.117188 C 17.511719 21.117188 17.179688 21.449219 17.179688 21.859375 C 17.179688 22.269531 17.511719 22.601562 17.921875 22.601562 C 18.332031 22.601562 18.664062 22.269531 18.664062 21.859375 Z M 18.664062 21.859375 "/>
<path style=" stroke:none;fill-rule:nonzero;fill:rgb(12.941177%,12.941177%,12.941177%);fill-opacity:1;" d="M 15.050781 21.378906 C 15.050781 21.023438 14.761719 20.734375 14.402344 20.734375 C 14.046875 20.734375 13.757812 21.023438 13.757812 21.378906 C 13.757812 21.738281 14.046875 22.027344 14.402344 22.027344 C 14.761719 22.027344 15.050781 21.738281 15.050781 21.378906 Z M 15.050781 21.378906 "/>
<path style=" stroke:none;fill-rule:nonzero;fill:rgb(12.941177%,12.941177%,12.941177%);fill-opacity:1;" d="M 24 3 C 12.421875 3 3 12.421875 3 24 C 3 35.578125 12.421875 45 24 45 C 35.578125 45 45 35.578125 45 24 C 45 12.421875 35.578125 3 24 3 Z M 22.027344 42.894531 C 22.804688 37.898438 22.300781 31.800781 22.078125 29.660156 C 23.355469 29.3125 24.246094 28.976562 24.363281 28.929688 C 24.878906 28.730469 25.132812 28.152344 24.933594 27.636719 C 24.730469 27.121094 24.152344 26.863281 23.636719 27.066406 C 21.160156 28.035156 14.222656 29.871094 11.867188 26.824219 C 11.152344 25.894531 11.015625 24.863281 11.464844 23.757812 C 12.488281 21.234375 16.140625 18.921875 19.957031 18.375 C 25.410156 17.59375 30.253906 21.460938 30.925781 25.4375 C 31.515625 28.914062 32.417969 38.441406 32.648438 40.898438 C 30.050781 42.230469 27.113281 43 24 43 C 23.332031 43 22.675781 42.964844 22.027344 42.894531 Z M 34.550781 39.789062 C 34.234375 36.414062 33.445312 28.347656 32.898438 25.105469 C 32.066406 20.210938 26.441406 15.425781 19.671875 16.394531 C 15.132812 17.042969 10.902344 19.820312 9.609375 23.003906 C 8.894531 24.765625 9.132812 26.558594 10.285156 28.046875 C 12.488281 30.902344 16.824219 30.753906 20.113281 30.117188 C 20.332031 32.367188 20.757812 38.046875 20.050781 42.578125 C 11.464844 40.757812 5 33.121094 5 24 C 5 13.523438 13.523438 5 24 5 C 34.476562 5 43 13.523438 43 24 C 43 30.574219 39.640625 36.378906 34.550781 39.789062 Z M 34.550781 39.789062 "/>
</g>
</svg>
