<?xml version="1.0" encoding="UTF-8"?>
<svg xmlns="http://www.w3.org/2000/svg" xmlns:xlink="http://www.w3.org/1999/xlink" width="48px" height="px" viewBox="0 0 48 48" version="1.1">
<g id="surface1">
<path style=" stroke:none;fill-rule:nonzero;fill:rgb(58.431375%,45.882353%,80.392158%);fill-opacity:1;" d="M 44.859375 9.976562 L 25.023438 45.449219 C 24.613281 46.179688 23.5625 46.183594 23.144531 45.457031 L 2.914062 9.980469 C 2.460938 9.183594 3.140625 8.222656 4.039062 8.382812 L 23.898438 11.933594 C 24.027344 11.957031 24.15625 11.957031 24.28125 11.933594 L 43.726562 8.390625 C 44.621094 8.226562 45.304688 9.179688 44.859375 9.976562 Z M 44.859375 9.976562 "/>
<path style=" stroke:none;fill-rule:nonzero;fill:rgb(98.431373%,75.294119%,17.647059%);fill-opacity:1;" d="M 33.574219 3.011719 L 19.019531 5.863281 C 18.78125 5.910156 18.601562 6.113281 18.589844 6.355469 L 17.691406 21.476562 C 17.671875 21.832031 18 22.109375 18.347656 22.027344 L 22.398438 21.09375 C 22.777344 21.007812 23.121094 21.339844 23.042969 21.722656 L 21.839844 27.617188 C 21.757812 28.011719 22.128906 28.351562 22.519531 28.234375 L 25.019531 27.472656 C 25.410156 27.355469 25.78125 27.695312 25.699219 28.09375 L 23.785156 37.355469 C 23.667969 37.933594 24.4375 38.25 24.757812 37.753906 L 24.972656 37.421875 L 36.835938 13.75 C 37.03125 13.355469 36.691406 12.902344 36.253906 12.988281 L 32.085938 13.792969 C 31.691406 13.867188 31.359375 13.503906 31.46875 13.117188 L 34.191406 3.679688 C 34.300781 3.300781 33.96875 2.933594 33.574219 3.011719 Z M 33.574219 3.011719 "/>
</g>
</svg>
