<svg width="515" height="821" viewBox="0 0 515 821" fill="none" xmlns="http://www.w3.org/2000/svg">
<path d="M39.5 3.5L0 11V821H514.5V416L479 379L445.5 351.5L430 336L418 324L403 300L391 291.5L373 274L353.5 257L342 239L336 221L327 207.5L323.5 194.5L313.5 184.5L310.5 171L300.5 161.5L291 153L283 145.5L271.5 139.5L268.5 133L259.5 127L254 116L247 113L241.5 105L233 99L214.5 92L211 81L203.5 69.5L199.5 46.5L188 36L181.5 28.5L171.5 21L161.5 16.5L152.5 11L148 6.5L127.5 0.5L118.5 3.5H102.5L63 11L39.5 3.5Z" fill="#8C8F91"/>
</svg>
