<svg width="1185" height="764" viewBox="0 0 1185 764" fill="none" xmlns="http://www.w3.org/2000/svg">
<path d="M984 40C985 39.6667 986.8 39 986 39H1003.5L1010 35L1018 34L1028.5 30.5L1047 29.5L1079 23L1086.5 18.5L1091 17L1095 18.5L1102 17H1116L1128.5 15.5L1132 13.5L1138 12.5L1144 17L1150 18.5L1160 14.5L1169 13.5L1179 3.5L1185 0V764H0.5V393.5L13 385.5L33.5 378.5L77 382L98 378.5L106.5 382L123 371L132.5 364.5L178.5 357L196 347L219.5 341.5L234 335L263.5 318L291.5 310.5L314.5 302L346 296L356 297L366 293.5L382 291L392.5 284L403 277L411.5 269.5L426 265L431.5 258.5L439 256L455 242.5L468 236.5L470 231L479.5 226.5L491.5 217L500 213.5L508 203L527 190L530.5 185L551.5 172.5L581.5 152.5L586 144.5L594.5 139.5L600 135L619 125L636.5 110.5L646 104.5L655.5 101.5L668.5 96L688.5 93.5L701 96L718 93.5L726 88.5L736.5 84L751.5 80L781 77L807 80L856.5 66.5L886.5 46.5L905 32L913 34.5L929.5 32L949.5 34.5H959L968 38H979L984 40Z" fill="#8F999F"/>
</svg>
