<svg width="922" height="764" viewBox="0 0 922 764" fill="none" xmlns="http://www.w3.org/2000/svg">
<path d="M721 40C722 39.6667 723.8 39 723 39H740.5L747 35L755 34L765.5 30.5L784 29.5L816 23L823.5 18.5L828 17L832 18.5L839 17H853L865.5 15.5L869 13.5L875 12.5L881 17L887 18.5L897 14.5L906 13.5L916 3.5L922 0V764H0.5V318L28.5 310.5L51.5 302L83 296L93 297L103 293.5L119 291L129.5 284L140 277L148.5 269.5L163 265L168.5 258.5L176 256L192 242.5L205 236.5L207 231L216.5 226.5L228.5 217L237 213.5L245 203L264 190L267.5 185L288.5 172.5L318.5 152.5L323 144.5L331.5 139.5L337 135L356 125L373.5 110.5L383 104.5L392.5 101.5L405.5 96L425.5 93.5L438 96L455 93.5L463 88.5L473.5 84L488.5 80L518 77L544 80L593.5 66.5L623.5 46.5L642 32L650 34.5L666.5 32L686.5 34.5H696L705 38H716L721 40Z" fill="#8F999F"/>
</svg>
