<svg width="1555" height="101" viewBox="0 0 1555 101" fill="none" xmlns="http://www.w3.org/2000/svg">
<path d="M16.1279 39.808H86.2719V67.328H16.1279V39.808ZM88.8319 2.30399V29.824H17.9199L33.0239 15.104V98.304H-5.34058e-05V2.30399H88.8319ZM124.034 43.392H156.29C159.533 43.392 162.05 42.624 163.842 41.088C165.634 39.552 166.53 37.3333 166.53 34.432C166.53 31.5307 165.634 29.312 163.842 27.776C162.05 26.24 159.533 25.472 156.29 25.472H119.426L134.274 10.624V98.304H101.25V2.30399H161.41C169.09 2.30399 175.789 3.66933 181.506 6.39999C187.309 9.04533 191.789 12.7573 194.946 17.536C198.189 22.3147 199.81 27.9467 199.81 34.432C199.81 40.7467 198.189 46.336 194.946 51.2C191.789 55.9787 187.309 59.6907 181.506 62.336C175.789 64.9813 169.09 66.304 161.41 66.304H124.034V43.392ZM135.298 53.376H171.778L203.65 98.304H165.89L135.298 53.376ZM234.659 82.176V55.936H300.067V82.176H234.659ZM289.955 2.30399L332.067 98.304H296.867L263.715 16.896H272.163L239.011 98.304H203.811L245.923 2.30399H289.955ZM331.3 66.688H364.836C365.177 68.5653 366.159 70.1867 367.78 71.552C369.401 72.832 371.62 73.856 374.436 74.624C377.252 75.3067 380.623 75.648 384.548 75.648C389.668 75.648 393.636 75.136 396.452 74.112C399.353 73.088 400.804 71.424 400.804 69.12C400.804 67.584 399.993 66.304 398.372 65.28C396.751 64.1707 393.423 63.4453 388.388 63.104L372.516 62.08C358.095 61.1413 347.684 58.0693 341.284 52.864C334.884 47.6587 331.684 40.7893 331.684 32.256C331.684 25.088 333.732 19.1147 337.828 14.336C341.924 9.55733 347.641 5.97333 354.98 3.584C362.404 1.19467 371.065 0 380.964 0C390.607 0 399.14 1.36533 406.564 4.09599C414.073 6.74133 420.004 10.496 424.356 15.36C428.793 20.224 431.225 25.8987 431.652 32.384H398.116C397.86 30.848 397.007 29.5253 395.556 28.416C394.191 27.3067 392.228 26.4533 389.668 25.856C387.108 25.2587 383.993 24.96 380.324 24.96C375.631 24.96 371.919 25.4293 369.188 26.368C366.543 27.3067 365.22 28.8427 365.22 30.976C365.22 32.4267 365.988 33.664 367.524 34.688C369.145 35.712 372.217 36.3947 376.74 36.736L394.66 37.888C404.047 38.4853 411.641 39.8933 417.444 42.112C423.247 44.2453 427.471 47.232 430.116 51.072C432.847 54.912 434.212 59.648 434.212 65.28C434.212 72.3627 432.121 78.5493 427.94 83.84C423.759 89.1307 417.871 93.2693 410.276 96.256C402.767 99.1573 393.977 100.608 383.908 100.608C373.497 100.608 364.367 99.2 356.516 96.384C348.665 93.568 342.521 89.6 338.084 84.48C333.732 79.36 331.471 73.4293 331.3 66.688ZM530.882 38.912V61.696H458.562V38.912H530.882ZM481.218 50.304L475.33 86.016L462.786 72.192H535.618V98.304H442.69L449.73 50.304L442.69 2.30399H534.978V28.416H462.786L475.33 14.592L481.218 50.304ZM571.909 43.392H604.165C607.408 43.392 609.925 42.624 611.717 41.088C613.509 39.552 614.405 37.3333 614.405 34.432C614.405 31.5307 613.509 29.312 611.717 27.776C609.925 26.24 607.408 25.472 604.165 25.472H567.301L582.149 10.624V98.304H549.125V2.30399H609.285C616.965 2.30399 623.664 3.66933 629.381 6.39999C635.184 9.04533 639.664 12.7573 642.821 17.536C646.064 22.3147 647.685 27.9467 647.685 34.432C647.685 40.7467 646.064 46.336 642.821 51.2C639.664 55.9787 635.184 59.6907 629.381 62.336C623.664 64.9813 616.965 66.304 609.285 66.304H571.909V43.392ZM583.173 53.376H619.653L651.525 98.304H613.765L583.173 53.376ZM812.648 83.712L803.048 83.84L823.272 2.30399H858.216L831.208 98.304H788.712L763.88 20.352H776.68L751.848 98.304H709.352L682.344 2.30399H717.416L737.64 83.712L728.04 83.584L753 2.30399H787.56L812.648 83.712ZM927.649 2.30399V83.712L912.801 68.864H984.225V98.304H894.625V2.30399H927.649ZM1080.26 38.912V61.696H1007.94V38.912H1080.26ZM1030.59 50.304L1024.7 86.016L1012.16 72.192H1084.99V98.304H992.065L999.105 50.304L992.065 2.30399H1084.35V28.416H1012.16L1024.7 14.592L1030.59 50.304ZM1157.81 83.2H1144.25L1178.42 2.30399H1212.98L1169.46 98.304H1131.83L1088.31 2.30399H1123.64L1157.81 83.2ZM1226.16 82.176V55.936H1291.57V82.176H1226.16ZM1281.45 2.30399L1323.57 98.304H1288.37L1255.21 16.896H1263.66L1230.51 98.304H1195.31L1237.42 2.30399H1281.45ZM1435.21 56.704C1434.19 65.4933 1431.16 73.1733 1426.12 79.744C1421.17 86.3147 1414.6 91.4347 1406.41 95.104C1398.22 98.7733 1388.83 100.608 1378.25 100.608C1366.82 100.608 1356.83 98.5173 1348.3 94.336C1339.77 90.1547 1333.11 84.3093 1328.33 76.8C1323.64 69.2053 1321.29 60.3733 1321.29 50.304C1321.29 40.2347 1323.64 31.4453 1328.33 23.936C1333.11 16.3413 1339.77 10.4533 1348.3 6.272C1356.83 2.09067 1366.82 0 1378.25 0C1388.83 0 1398.22 1.83467 1406.41 5.504C1414.6 9.17333 1421.17 14.2933 1426.12 20.864C1431.16 27.4347 1434.19 35.1147 1435.21 43.904H1402.06C1401.29 40.576 1399.88 37.76 1397.83 35.456C1395.79 33.0667 1393.1 31.2747 1389.77 30.08C1386.53 28.8 1382.69 28.16 1378.25 28.16C1373.3 28.16 1369.03 29.056 1365.45 30.848C1361.95 32.5547 1359.26 35.072 1357.39 38.4C1355.51 41.728 1354.57 45.696 1354.57 50.304C1354.57 54.912 1355.51 58.88 1357.39 62.208C1359.26 65.4507 1361.95 67.968 1365.45 69.76C1369.03 71.552 1373.3 72.448 1378.25 72.448C1382.69 72.448 1386.53 71.8933 1389.77 70.784C1393.1 69.5893 1395.79 67.84 1397.83 65.536C1399.88 63.1467 1401.29 60.2027 1402.06 56.704H1435.21ZM1446.37 98.304V2.30399H1479.14V72.576L1470.82 65.536L1518.57 2.30399H1553.13L1476.33 98.304H1446.37ZM1492.45 54.144L1516.77 35.072L1554.41 98.304H1517.03L1492.45 54.144Z" fill="black"/>
</svg>
