<svg width="1726" height="900" viewBox="0 0 1726 900" fill="none" xmlns="http://www.w3.org/2000/svg">
<path d="M806 169.5L63.5 175.5L72.5 138L147.5 119L175 67.5L249.5 49.5L297 74.5L329.5 27.5L399 0L497 35.5L536 92.5L608.5 85.5L657.5 111.5L672.5 145L741.5 138L806 169.5Z" fill="#FFFFFD"/>
<path d="M72 138.5L148 118L238 165H250.5L271 159.5L353 134L412 140.5L448.5 159.5L520.5 144.5V119L539.5 93V110.5L549.5 134L600.5 144.5L609.5 162.5L704 155.5L805.5 169.5L63.5 177L72 138.5Z" fill="#C3C8CB"/>
<path d="M995 416.5L1204 328.5L1259.5 356.5H1286L1350.5 394L1438.5 336L1578 394L1725.5 408.5V899.5H-2V674H298.5L967.5 408.5L995 416.5Z" fill="#576F59"/>
<path d="M1177.5 360L1204.5 328.5L1259 357H1285.5L1350.5 393.5L1359 388L1350.5 400V406L1361.5 410.5L1383.5 424.5L1403.5 445.5L1373.5 447.5L1350.5 458.5L1325 456.5L1313 467.5L1281.5 469.5L1279.5 474.5L1292.5 481.5L1350.5 535.5L1354 549L1294 599L1115.5 586.5L1167 489.5L1223 451L1215 445.5H1161.5L1210.5 410.5L1177.5 360Z" fill="#425458"/>
<path d="M1064.5 496.5L1124 451L1095 519.5L1064.5 549L1031 543L1013.5 513.5L1051 504L1064.5 496.5Z" fill="#425458"/>
<path d="M1448.5 360L1438.5 336.5L1516 368.5L1530 418.5L1479 429L1448.5 393.5V360Z" fill="#425458"/>
</svg>
