<svg width="1728" height="371" viewBox="0 0 1728 371" fill="none" xmlns="http://www.w3.org/2000/svg">
<path d="M133 70.5L108.5 0L86 70.5H94L75.5 105H86L63 164L195 173.5L211 164L183.5 127.5L198.5 130L183.5 99L198.5 114.5L183.5 85H190.5L170.5 27L153 85H161.5L148.5 105L125 70.5H133Z" fill="#383E36"/>
<path d="M229 173.5L241 152L223 156L242.5 133V130L232.5 133L257.5 89V83.5L249 90.5L263.5 42.5L279.5 91.5L272.5 94L288 112L279.5 107.5L285.5 116.5L275 112L301.5 158H285L304.5 182.5L229 173.5Z" fill="#383E36"/>
<path d="M355 124L372 68L389 127L380.5 124L392 152L384.5 148L396 164H389L396 173.5L410.5 112L431.5 180H425L431.5 210H425L448.5 250.5H425L341 199L355 160.5L345.5 164L362 130L355 138L362 116.5L355 124Z" fill="#383E36"/>
<path d="M489 182L500 154L511 182L504.5 180L511 202.5L517.5 182L530.5 221L519.5 218L534.5 237H530.5L549 274.5L484 250.5L486 237L493 202.5H486L495 180L489 182Z" fill="#383E36"/>
<path d="M559 245L573 202.5L583.5 235.5L584.5 252.5L581.5 250.5L588.5 267L584.5 264L592 289.5L559 279L562 261.5L556.5 264L565 239.5L559 245Z" fill="#383E36"/>
<path d="M639.5 274.5L653.5 241.5L664 277L659.5 274.5L667 284L675 264L670.5 267L677 250.5L673.5 252.5L684.5 232.5L696 257H691L696 274.5L691 267V277L696 284L699.5 293L705 274.5L708 289.5L710.5 304.5L716.5 286.5L710.5 289.5L726.5 239.5L740 286.5H733L743.5 306.5L740 310L747 316L740 334L639.5 304.5L643.5 293H639.5L643.5 274.5H639.5Z" fill="#383E36"/>
<path d="M951 311L963.5 274.5L971 299.5V313L979.5 325L990.5 311L976 315.5L994 284.5L979.5 286.5L996.5 263L987.5 270L996.5 254.5L987.5 258.5L996.5 235L1007 208.5L1009 218.5L1018.5 258.5L1012.5 257L1022.5 268L1024.24 272.295L1045 246L1037 249L1045 229.5L1035 235L1051.5 193L1055 178L1059.5 195L1066.5 218.5L1074.5 238.5L1063.5 235L1074.5 252.5L1066.5 249L1087.5 272L1074.5 274.5L1094.5 304H1079.5L1098.5 323L1004.5 347.5L943 337L955.5 320.5H948.5L957.5 306L951 311Z" fill="#383E36"/>
<path d="M750.5 284L759 262.5L761 275L767.5 301L764.5 298L767.5 315.5L779.5 340L739 331L748 315.5L743.5 317.5L752 298L746.5 301L755.5 281.5L750.5 284Z" fill="#0E2219"/>
<path d="M797.5 301L809.5 275L812 284L818.5 301H814L818.5 310L814 308.5L823 320.5L816.5 317.5L821.5 326L833 334L791 340L792.5 332.5L797.5 320.5H792.5L800 310L796 312L803 298L797.5 301Z" fill="#0E2219"/>
<path d="M1132 127.5L1136 108L1142 131.5L1147.5 149.5L1161 195L1147.5 191.5L1168.5 221.5L1158 217.5L1179 245.5L1158 249L1181 279H1165L1175 293.5L1188 269.5H1175L1192.5 249L1181 253L1192.5 234.5L1181 237.5L1185.5 227.5L1203.5 175.5L1211.5 207.5L1220 230L1214.5 241L1227 255.5L1240.5 230L1217.5 237.5L1245.5 182L1250 168.5L1257 113.5L1260.5 127.5L1265.5 149.5L1278.5 175.5L1272.5 182L1291 221.5L1278.5 217.5L1291 249L1281.5 241L1301 274.5H1294L1308 311.5H1185.5L1082.5 334L1090.5 311.5L1108.5 287.5L1082.5 296.5L1102 261L1116.5 241L1094.5 244L1123 207.5L1108.5 214.5L1123 188.5L1108.5 191.5L1132 127.5Z" fill="#0E2219"/>
<path d="M-1.5 161L70.5 138L185 167.5H234.5L273.5 173L449.5 242L619 295.5L781 341.5L879 324.5L1000 341.5L1727.5 298.5V370.5H-1.5V161Z" fill="#FAFCF7"/>
<path d="M780 342L878.5 324L999 341.5L1063 370.5H650.5L780 342Z" fill="#E4EEEF"/>
</svg>
