<svg width="1725" height="742" viewBox="0 0 1725 742" fill="none" xmlns="http://www.w3.org/2000/svg">
<path d="M713.5 136L790.5 109.5L925 149L1010 130L1123.5 157.5L1286.5 122.5L1338.49 126L1367 133.639L1423.5 118.5L1474.5 136L1563 109.5L1725 146.5V741.5H-2V318L674 122.5L713.5 136Z" fill="#D0D9C4"/>
<path d="M1713 65H1325L1366 43L1416.5 49.5L1440.5 27.5H1477.5L1497.5 6.5L1538 0L1557 6.5L1563 24L1615 10L1713 32.5L1721.5 49.5L1713 65Z" fill="#FFFFFD"/>
<path d="M1439.5 54.5L1325 65H1713L1601 39L1525.5 59.5L1439.5 54.5Z" fill="#C3C8CB"/>
</svg>
