<svg width="1115" height="491" viewBox="0 0 1115 491" fill="none" xmlns="http://www.w3.org/2000/svg">
<path d="M165 385L173 356.5L181 382L178 384L182 385V399.5L160 414.5L168.5 385H165Z" fill="#35403A"/>
<path d="M219 380.5L230 336.5L237 362.5L241 365.5L242.5 356.5L250 329.5L260.5 354.5L270.5 325.5L279 352.5L280.5 362.5L241 374.5L219 380.5Z" fill="#35403A"/>
<path d="M290 350.5L300.5 314L308 344.5L312.5 321.5L323 358L290 363.5V350.5Z" fill="#35403A"/>
<path d="M336 344.5L340.5 327L345.5 339H349L355 323.5H350.5L362.5 302L369.5 313V323.5L374 331V320L382 299.5L388.5 315L390 321.5L374 331L336 354.5V344.5Z" fill="#35403A"/>
<path d="M402 302L398.5 315L426.5 300.5L419.5 292.5L425 291.5L415 272.5L402 302Z" fill="#35403A"/>
<path d="M580 234.5L590 201.5L594 217L597 233L605.5 208.5L614 241.5L616 249H577L580 234.5Z" fill="#35403A"/>
<path d="M622.5 247.5L630 225L634.5 236L640.5 221L636.5 219.5L643 198L650 214.5L652.5 224L639.5 242.5L622.5 247.5Z" fill="#35403A"/>
<path d="M926.5 73.5L1114.5 0V491H0L218.5 373L347 347L493.5 254L636 238.5L818 87L926.5 73.5Z" fill="#531D1C"/>
<path d="M493 296L490.5 254L514 251.5L559.5 300.5L466 380.5L404 400.5L493 296Z" fill="#803A38"/>
<path d="M529 253L518.5 250.5L631 239L812.5 87L920.5 74L1010 38.5L920.5 112.5L872 123.5L749 232L769.5 238.5L845.5 192.5L880.5 208.5L769.5 250.5L718 284.5L577.5 296L651.5 257.5L649.5 254L529 253Z" fill="#803A38"/>
</svg>
