<svg width="1361" height="608" viewBox="0 0 1361 608" fill="none" xmlns="http://www.w3.org/2000/svg">
<path d="M1164.5 43L1362.5 0V608H0L353 440L500.5 403.5L572 351.5L685 327L831 203L885.5 216L1040.5 179.5L1164.5 43Z" fill="#AA8C55"/>
<path d="M1130 120.5L1165.5 42.5L1360 0L1333 220.5L1137 241.5L1179 164L1235.5 110.5L1169 144L1156 166.5L1118.5 185.5L1083.5 191.5L1130 144V120.5Z" fill="#755733"/>
<path d="M808.5 264L829 205L831 203L885.5 216L1038 179.5L961 223L931.5 254L922 268.5L908 297L863.5 338.5L875 277.5L870.5 250L823 297L730.5 322L808.5 264Z" fill="#755733"/>
</svg>
