<svg width="1727" height="913" viewBox="0 0 1727 913" fill="none" xmlns="http://www.w3.org/2000/svg">
<path d="M763 361L824.5 334.5L952 380.5L1004.5 363L1014 367.5L1226 391.5L1435.5 400L1553.5 381L1726.5 414V912.5H-1.5V517.5L673.5 353L720.5 370L747 361H763Z" fill="#7D9BA5"/>
<path d="M1330 110.5H1017.5L1039 80.5L1107.5 55.5L1162.5 63L1200 15.5L1292.5 0L1357.5 25L1387.5 51H1431L1438 67.5L1425.5 94L1330 110.5Z" fill="#FFFFFD"/>
<path d="M1389.68 51.1071L1357.79 25L1375.73 81.8214L1310.96 61.8571L1273.09 76.1905H1210.82L1162.99 104.857L1079.79 96.1548L1020 111H1330.39L1426.05 93.5952L1439 66.9762L1431.03 51.1071H1389.68Z" fill="#C3C8CB"/>
</svg>
