<svg width="1728" height="844" viewBox="0 0 1728 844" fill="none" xmlns="http://www.w3.org/2000/svg">
<path d="M449 595L457.5 558L492.5 636.5L471 631L486.5 664.5L503 689L482.5 685L503 726L513 737.5L486.5 730.5L511.244 767.383L522.5 750.5L508.5 754L526 735L517 730.5L533 707.5L522.5 711L543.5 642.5L554 675.5L569 711L554 707.5L569 737.5L581 754L564 750.5L569 761H543.5L589 793.5H573.5L586 809L508.5 797L526 775.5L500.5 783.5L509.858 769.464L492.5 766.5L457.5 779L482.5 788.5H413L421 779L393 788.5L436.5 730.5L409 742L421 715L436.5 692L413 696L441.5 664.5L426 668.5L445 631L429 639.5L449 595Z" fill="#666A6D"/>
<path d="M1325.5 442.5L1344 387.5L1349 423.5L1353.5 449L1377 504.5L1357.5 493L1388 540.5L1377 533.5L1396.5 558L1370.5 548.5L1402.5 598H1388L1422 651.5L1381.5 631.5L1436.5 704.5L1402.5 690.5H1388L1431 743H1406L1422 757.5L1370.5 780H1257L1265 769H1238.5L1265 738L1289.5 708.5H1249L1306.5 636L1282 644.5L1289.5 636L1257 647.5L1289.5 598L1282 601.5L1319 533.5L1306.5 544L1289.5 548.5L1325.5 493L1298 498.5L1325.5 442.5Z" fill="#666A6D"/>
<path d="M190 592.5L199.5 545L214.5 592.5L232.5 636L214.5 629.5L232.5 655.5L214.5 649L250 689.5L227 683.5L232.5 692.5H196.5L209.5 706.5H223.5L254.33 741.666L279.5 713.5V703.5L250 718L279.5 676L285.5 665.5L265 671.5L290.5 646.5L295.5 629.5L274 636L311 583H304.5L291.5 592.5L322.5 488L335.5 523L347.5 559.5L363 583V589L338 583L343.5 589L371 629.5L347.5 617.5L356 646.5L368 671.5L319 651.5L295.5 673H338L399 718L371 711L376 718L351.5 706.5L371 729.5L321 711L295.5 729.5L282 761.5L315.5 743L335.5 776L347.5 752.5L395 770L406 776H389.5L363 770L380 786.5H304.5L255.5 776L256.855 774.865L151.5 746L174 718H165L146.5 728L174 683.5L155.5 689.5L181.5 655.5L170.5 658L185.5 636L190 625L170.5 636L190 592.5Z" fill="#445148"/>
<path d="M54.5 710L305 787.5H493L684 830.5L842 843H946.5L1005 813.5L1181.5 774L1372.5 779.5L1502.5 732.5L1612 670L1725 698V843H946.5H842H0V721L54.5 710Z" fill="#F8FAF9"/>
<path d="M70 776.5H0V843H116L186.5 812.5L134.5 792L81 783.5L70 776.5Z" fill="#B1BAC3"/>
<path d="M229.5 843.5L234 830.5L434.5 820L513 837L527 843.5H229.5Z" fill="#B1BAC3"/>
<path d="M1127.5 820.5L1013.5 842.5L1235.5 843L1281 830.5L1127.5 820.5Z" fill="#B1BAC3"/>
<path d="M1552.5 790.5L1480 843H1728.5V768L1552.5 790.5Z" fill="#B1BAC3"/>
<path d="M35.5 801L40.5 756L69.5 750L78 801L56 808.5L35.5 801Z" fill="#2E2118"/>
<path d="M1649 804L1656.5 736.5H1697L1706.5 798.5L1676 811L1649 804Z" fill="#2E2118"/>
<path d="M59.5 807.5V752L69.5 749.5L78 801L59.5 807.5Z" fill="#60462B"/>
<path d="M1671.5 766.5L1652.5 805L1649 804L1656.5 736.5H1671.5V766.5Z" fill="#60462B"/>
<path d="M588 749L612 688L621.5 724L635.5 749L621.5 743L635.5 767.5L624.5 761L645 786L624.5 780L655 816.5L645 811L631 813.5L649 828.5L579.5 813.5L603.5 777L579.5 783.5L597 761L591 763L599 743L588 749Z" fill="#172B1F"/>
<path d="M9 653L-0.5 675.5V769.5L70.5 752.5L190.5 780L123.5 658L141.5 662H161.5L150.5 653L141.5 642L116 599.5L161.5 613L106 520H145L106 470.5L83 453L116 467.5L90 423.5L118 430L66 280.5L54.5 344.5L42 381L22 437L46 423.5L9 479L35.5 470.5L-0.5 516V524.5H28.5L-0.5 567.5V582.5L22 577.5L-0.5 621V658L9 653Z" fill="#172B1F"/>
<path d="M1437.5 500L1479 376L1491.5 439.5L1511 500L1491.5 495.5L1524 542L1500 530L1539.5 580H1508L1525.29 609.36L1561.5 568.5L1615.5 500L1596 512.5L1567.5 516.5L1578 500L1524 512.5L1590.5 416.5H1578L1620 357.5L1645.5 299L1606.5 320H1584L1651.5 232.5L1658 212.5L1635.5 225H1606.5L1635.5 177L1645.5 159.5L1693 0L1718 115.5L1728.5 138V219H1723L1728.5 228.5L1728 751L1688.5 738.5H1658.5L1465 771L1615.5 717.5L1557.12 688.929L1561.5 695L1524 683L1545 727L1397.5 778.5L1411.5 738.5L1431.5 683L1397.5 701L1431.5 642L1472.5 622L1419.5 637.5L1402 647.5L1446 580L1472.5 557.5L1415.5 576L1459 522L1437.5 530L1459 492L1437.5 500Z" fill="#172B1F"/>
<path d="M112 412.5L66 281L73.5 367.5L112 412.5Z" fill="#FDFDFA"/>
<path d="M106 470.5L83.5 453L101 496.5L139 520H145L106 470.5Z" fill="#FDFDFA"/>
<path d="M119.5 542L91.5 528.5V546L59.5 533L55 570L72.5 562L93 604L105 580L161.5 613L119.5 542Z" fill="#FDFDFA"/>
<path d="M133.5 676L86.5 655.5L106 718L59.5 684L42 708.5L77 754L93.5 721.5L186.5 773L133.5 676Z" fill="#FDFDFA"/>
<path d="M321.5 539L322.5 488.5L347.5 559L363.5 584L336 566.5L330 549.5L321.5 539Z" fill="#FDFDFA"/>
<path d="M342.5 587.5L326.5 584V587.5L370 628L342.5 587.5Z" fill="#FDFDFA"/>
<path d="M353.5 638L329 625L341 646.5L366.5 668L356 646.5L353.5 638Z" fill="#FDFDFA"/>
<path d="M457.5 586.5V558.5L491.5 634L467 621L465.5 607.5L457.5 586.5Z" fill="#FDFDFA"/>
<path d="M469.5 674.5L464 647L491.5 672L502.5 688.5L469.5 674.5Z" fill="#FDFDFA"/>
<path d="M493 706H469.5C471.667 710.167 476.1 718.7 476.5 719.5C476.9 720.3 481.667 723.5 484 725L508 732L503.5 726.5L493 706Z" fill="#FDFDFA"/>
<path d="M553.5 694.5L540 654L543.5 643L566.5 704H562L553.5 694.5Z" fill="#FDFDFA"/>
<path d="M1341.5 451V395L1325.5 442.5L1298 498.5L1310.5 484L1319.5 488H1327L1341.5 451Z" fill="#FDFDFA"/>
<path d="M1339.5 504L1325 494L1289.5 548.5L1339.5 504Z" fill="#FDFDFA"/>
<path d="M1340.5 552.5L1308 554L1282.5 601L1289.5 598L1256.5 647.5L1312.5 610.5L1324 615H1329.5L1354 602L1352 599.5L1306 584L1340.5 552.5Z" fill="#FDFDFA"/>
<path d="M1320 655L1302.5 640.5L1248.5 708.5L1298 694L1336 676.5L1362 704H1366.5L1343.5 637.5L1320 655Z" fill="#FDFDFA"/>
<path d="M1240 767L1278.5 722L1300.5 731.5H1307.5L1331.5 719.5L1339 717L1363 769.5L1331.5 750L1305.5 774.5L1312 745L1263.5 771L1270.5 758.5L1240 767Z" fill="#FDFDFA"/>
<path d="M1465.5 771L1545.5 682.5L1615.5 717L1465.5 771Z" fill="#FDFDFA"/>
<path d="M1618.5 598L1491.5 647.5L1583.5 541L1641.5 532.5L1696 576.5L1641.5 657.5L1618.5 598Z" fill="#FDFDFA"/>
<path d="M1532 510.5L1524.5 512.5L1591 416H1578L1620 357.5L1624 348.5L1671.5 322.5L1640.5 377L1597 406L1633 419L1700 400.5L1703 402L1652.5 454.5L1624.5 448L1532 510.5Z" fill="#FDFDFA"/>
<path d="M1588 320H1584.5L1651.5 233L1653 228L1685 238L1588 320Z" fill="#FDFDFA"/>
<path d="M1697 125L1608.5 221.5L1645.5 159.5L1693 0.5L1697 125Z" fill="#FDFDFA"/>
<path d="M295.5 673L319 651.5L368 671.5L338 673H295.5Z" fill="#FDFDFA"/>
<path d="M295.5 729.5L321 711L371 729.5L395 770L347.5 752.5L335.5 776L315.5 743L282 761.5L295.5 729.5Z" fill="#FDFDFA"/>
<path d="M457.5 779L492.5 766.5L510 769.5L480 787.5L457.5 779Z" fill="#FDFDFA"/>
<path d="M543.5 761H569L577 785L543.5 761Z" fill="#FDFDFA"/>
<path d="M209.5 706.5L196.5 692.5H222L223.5 706.5H209.5Z" fill="#FDFDFA"/>
</svg>
