<svg width="1725" height="793" viewBox="0 0 1725 793" fill="none" xmlns="http://www.w3.org/2000/svg">
<path d="M18 123L0 140V793H1725V649L1512.5 635.5L1127 455L1008.5 403L953 396.5L796.5 303.5L682 290.5L626.5 258L459 92.5H396.5L257.5 0L18 123Z" fill="#213242"/>
<path d="M284.5 88L258.5 0.5L397.5 92.5H460L627.5 258L682 290.5L691 352L697 357.5L711 376L758.5 405H779.5L841.5 460L691 415.5V405L688 395.5L678 386.5H661.5V371.5L635 331L622 316L558 268L589 339.5V360L605.5 400L578 386.5L550.5 371.5L494.5 333.5L524.5 382.5L535 391.5L675 493L483.5 409L464.5 331L468.5 275.5L464.5 243.5L535 304L464.5 160.5L365 131.5L341.5 107L322.5 96.5L284.5 88Z" fill="#3E5563"/>
<path d="M795 317L789.5 302.5L797.5 303.5L954 396.5L1009.5 403H928.5L863.5 374.5L882 392L848 406.5V379.5L817.5 349L813.5 339.5L808.5 330L795 317Z" fill="#3E5563"/>
<path d="M357.5 147.5L290.5 129L322.5 164L349 157.5L363.5 167L375 169L443.5 203.5L379 147.5H357.5Z" fill="#3E5563"/>
</svg>
